<?xml version="1.0" encoding="iso-8859-1"?>
<!-- Generator: Adobe Illustrator 17.0.2, SVG Export Plug-In . SVG Version: 6.00 Build 0)  -->
<!DOCTYPE svg PUBLIC "-//W3C//DTD SVG 1.1//EN" "http://www.w3.org/Graphics/SVG/1.1/DTD/svg11.dtd">
<svg version="1.1" id="Layer_1" xmlns="http://www.w3.org/2000/svg" xmlns:xlink="http://www.w3.org/1999/xlink" x="0px" y="0px"
	 width="64px" height="64px" viewBox="0 0 64 64" style="enable-background:new 0 0 64 64;" xml:space="preserve">
<g>
	<path d="M39.967,36.859c-1.193-6.765-6.605-12.077-13.418-13.128L12.374,9.862c-0.158,0.504-0.421,0.962-0.796,1.337
		c-0.373,0.373-0.837,0.632-1.345,0.79l11.474,11.727C13.932,24.873,7.94,31.574,7.94,39.666c0,8.901,7.242,16.143,16.144,16.143
		c7.97,0,14.593-5.811,15.895-13.416L54.24,56.968c0.386,0.395,1.016,0.398,1.406,0.008l1.707-1.707
		c0.391-0.391,0.387-1.02-0.008-1.406L39.967,36.859z M37.228,39.666c0,7.247-5.896,13.143-13.144,13.143S10.94,46.913,10.94,39.666
		s5.896-13.144,13.144-13.144c0.13,0,0.257,0.016,0.387,0.02c3.251,0.095,6.203,1.374,8.45,3.423
		c0.245,0.224,0.483,0.454,0.711,0.696c2.203,2.334,3.568,5.465,3.591,8.915C37.223,39.606,37.228,39.635,37.228,39.666z"/>
	<path d="M55.939,58.683c0.195,0.195,0.451,0.293,0.707,0.293s0.512-0.098,0.707-0.293l1.707-1.707c0.391-0.391,0.391-1.023,0-1.414
		s-1.023-0.391-1.414,0l-1.707,1.707C55.549,57.659,55.549,58.292,55.939,58.683z"/>
	<path d="M24.084,31.355c-4.582,0-8.311,3.729-8.311,8.311s3.729,8.31,8.311,8.31s8.311-3.728,8.311-8.31
		S28.666,31.355,24.084,31.355z M24.084,44.976c-2.929,0-5.311-2.382-5.311-5.31c0-2.929,2.382-5.311,5.311-5.311
		s5.311,2.382,5.311,5.311C29.395,42.594,27.013,44.976,24.084,44.976z"/>
	<path d="M25.616,39.208c0.352-0.201,0.581-0.438,0.687-0.712c0.106-0.273,0.158-0.529,0.158-0.767c0-0.53-0.2-0.982-0.6-1.356
		s-0.964-0.561-1.693-0.561c-0.729,0-1.294,0.187-1.693,0.561c-0.401,0.374-0.6,0.826-0.6,1.356c0,0.238,0.053,0.494,0.159,0.767
		c0.106,0.273,0.335,0.527,0.689,0.762c-0.357,0.168-0.628,0.417-0.812,0.749c-0.185,0.332-0.277,0.703-0.277,1.112
		c0,0.614,0.21,1.136,0.63,1.567c0.419,0.431,1.037,0.646,1.853,0.646c0.816,0,1.451-0.215,1.906-0.646
		c0.455-0.431,0.682-0.953,0.682-1.567c0-0.409-0.091-0.78-0.273-1.112C26.247,39.676,25.976,39.409,25.616,39.208z M23.492,37.213
		c0.163-0.163,0.389-0.244,0.678-0.244c0.293,0,0.519,0.081,0.678,0.244c0.16,0.163,0.24,0.388,0.24,0.677
		c0,0.265-0.08,0.481-0.24,0.649c-0.159,0.168-0.386,0.252-0.678,0.252c-0.289,0-0.516-0.084-0.678-0.252
		c-0.163-0.168-0.245-0.384-0.245-0.649C23.247,37.602,23.328,37.376,23.492,37.213z M24.944,41.859
		c-0.186,0.198-0.443,0.297-0.772,0.297s-0.586-0.099-0.772-0.297c-0.186-0.198-0.279-0.476-0.279-0.835
		c0-0.372,0.095-0.655,0.284-0.848c0.189-0.193,0.445-0.289,0.767-0.289c0.322,0,0.578,0.096,0.767,0.289s0.284,0.475,0.284,0.848
		C25.224,41.382,25.131,41.661,24.944,41.859z"/>
	<path d="M6.715,6.337C6.048,7.003,6.28,8.315,7.233,9.267c0.585,0.585,1.306,0.898,1.93,0.898c0.391,0,0.744-0.123,1.001-0.38
		c0.666-0.666,0.434-1.978-0.518-2.931C9.06,6.27,8.339,5.956,7.716,5.956C7.325,5.956,6.972,6.08,6.715,6.337z"/>
</g>
</svg>
